<svg width="654" height="126" viewBox="0 0 654 126" fill="#fff" xmlns="http://www.w3.org/2000/svg">
<path d="M366.72 30.16C364.667 30.16 362.76 29.8133 361 29.12C359.24 28.4 357.707 27.4 356.4 26.12C355.093 24.84 354.08 23.3467 353.36 21.64C352.64 19.9067 352.28 18.0267 352.28 16C352.28 13.9733 352.64 12.1067 353.36 10.4C354.08 8.66666 355.093 7.15999 356.4 5.87999C357.707 4.59999 359.24 3.61333 361 2.91999C362.76 2.19999 364.667 1.83999 366.72 1.83999C368.613 1.83999 370.4 2.14666 372.08 2.75999C373.76 3.37333 375.213 4.30666 376.44 5.55999L375.6 6.43999C374.347 5.23999 372.973 4.38666 371.48 3.87999C370.013 3.34666 368.44 3.07999 366.76 3.07999C364.893 3.07999 363.16 3.41333 361.56 4.07999C359.96 4.71999 358.56 5.62666 357.36 6.79999C356.187 7.97333 355.267 9.34666 354.6 10.92C353.96 12.4667 353.64 14.16 353.64 16C353.64 17.84 353.96 19.5467 354.6 21.12C355.267 22.6667 356.187 24.0267 357.36 25.2C358.56 26.3733 359.96 27.2933 361.56 27.96C363.16 28.6 364.893 28.92 366.76 28.92C368.44 28.92 370.013 28.6667 371.48 28.16C372.973 27.6267 374.347 26.7467 375.6 25.52L376.44 26.4C375.213 27.6533 373.76 28.6 372.08 29.24C370.4 29.8533 368.613 30.16 366.72 30.16Z" fill="#fff"/>
<path d="M382.956 30V9.23999H384.236V14.96L384.116 14.6C384.676 12.8667 385.649 11.52 387.036 10.56C388.449 9.57333 390.209 9.07999 392.316 9.07999V10.4C392.262 10.4 392.196 10.4 392.116 10.4C392.062 10.4 392.009 10.4 391.956 10.4C389.556 10.4 387.676 11.16 386.316 12.68C384.956 14.2 384.276 16.2933 384.276 18.96V30H382.956Z" fill="#fff"/>
<path d="M406.077 30.12C404.023 30.12 402.21 29.68 400.637 28.8C399.063 27.8933 397.823 26.64 396.917 25.04C396.01 23.44 395.557 21.6267 395.557 19.6C395.557 17.5467 395.97 15.7333 396.797 14.16C397.65 12.5867 398.81 11.3467 400.277 10.44C401.77 9.53333 403.45 9.07999 405.317 9.07999C407.157 9.07999 408.81 9.51999 410.277 10.4C411.77 11.28 412.93 12.5067 413.757 14.08C414.61 15.6267 415.037 17.4133 415.037 19.44C415.037 19.4933 415.037 19.56 415.037 19.64C415.037 19.6933 415.037 19.7467 415.037 19.8H396.437V18.72H414.317L413.797 19.36C413.797 17.6267 413.423 16.08 412.677 14.72C411.957 13.3333 410.957 12.2533 409.677 11.48C408.397 10.68 406.943 10.28 405.317 10.28C403.69 10.28 402.237 10.68 400.957 11.48C399.677 12.2533 398.663 13.3333 397.917 14.72C397.197 16.08 396.837 17.64 396.837 19.4V19.64C396.837 21.4533 397.237 23.0667 398.037 24.48C398.837 25.8667 399.93 26.96 401.317 27.76C402.703 28.5333 404.29 28.92 406.077 28.92C407.437 28.92 408.717 28.6667 409.917 28.16C411.143 27.6533 412.157 26.88 412.957 25.84L413.797 26.72C412.863 27.84 411.717 28.6933 410.357 29.28C409.023 29.84 407.597 30.12 406.077 30.12Z" fill="#fff"/>
<path d="M434.163 30V25.16L434.123 24.44V16.56C434.123 14.5067 433.577 12.9467 432.483 11.88C431.39 10.8133 429.803 10.28 427.723 10.28C426.203 10.28 424.817 10.5467 423.563 11.08C422.31 11.5867 421.23 12.2533 420.323 13.08L419.603 12.12C420.59 11.1867 421.803 10.4533 423.243 9.91999C424.683 9.35999 426.19 9.07999 427.763 9.07999C430.243 9.07999 432.137 9.71999 433.443 11C434.777 12.2533 435.443 14.1067 435.443 16.56V30H434.163ZM426.443 30.12C424.87 30.12 423.523 29.88 422.403 29.4C421.31 28.92 420.47 28.24 419.883 27.36C419.297 26.4533 419.003 25.4267 419.003 24.28C419.003 23.2667 419.243 22.3333 419.723 21.48C420.203 20.6 420.99 19.9067 422.083 19.4C423.203 18.8667 424.697 18.6 426.563 18.6H434.603V19.68H426.563C424.297 19.68 422.683 20.1067 421.723 20.96C420.79 21.8133 420.323 22.8933 420.323 24.2C420.323 25.6667 420.87 26.84 421.963 27.72C423.057 28.5733 424.577 29 426.523 29C428.443 29 430.03 28.5733 431.283 27.72C432.537 26.84 433.483 25.6 434.123 24L434.563 24.88C434.03 26.4533 433.07 27.72 431.683 28.68C430.297 29.64 428.55 30.12 426.443 30.12Z" fill="#fff"/>
<path d="M449.728 30.12C448.022 30.12 446.715 29.64 445.808 28.68C444.902 27.72 444.448 26.4267 444.448 24.8V4.67999H445.768V24.6C445.768 26.0133 446.115 27.0933 446.808 27.84C447.502 28.5867 448.515 28.96 449.848 28.96C451.208 28.96 452.328 28.5467 453.208 27.72L453.888 28.68C453.382 29.16 452.755 29.52 452.008 29.76C451.262 30 450.502 30.12 449.728 30.12ZM440.528 10.4V9.23999H452.608V10.4H440.528Z" fill="#fff"/>
<path d="M467.131 30.12C465.078 30.12 463.265 29.68 461.691 28.8C460.118 27.8933 458.878 26.64 457.971 25.04C457.065 23.44 456.611 21.6267 456.611 19.6C456.611 17.5467 457.025 15.7333 457.851 14.16C458.705 12.5867 459.865 11.3467 461.331 10.44C462.825 9.53333 464.505 9.07999 466.371 9.07999C468.211 9.07999 469.865 9.51999 471.331 10.4C472.825 11.28 473.985 12.5067 474.811 14.08C475.665 15.6267 476.091 17.4133 476.091 19.44C476.091 19.4933 476.091 19.56 476.091 19.64C476.091 19.6933 476.091 19.7467 476.091 19.8H457.491V18.72H475.371L474.851 19.36C474.851 17.6267 474.478 16.08 473.731 14.72C473.011 13.3333 472.011 12.2533 470.731 11.48C469.451 10.68 467.998 10.28 466.371 10.28C464.745 10.28 463.291 10.68 462.011 11.48C460.731 12.2533 459.718 13.3333 458.971 14.72C458.251 16.08 457.891 17.64 457.891 19.4V19.64C457.891 21.4533 458.291 23.0667 459.091 24.48C459.891 25.8667 460.985 26.96 462.371 27.76C463.758 28.5333 465.345 28.92 467.131 28.92C468.491 28.92 469.771 28.6667 470.971 28.16C472.198 27.6533 473.211 26.88 474.011 25.84L474.851 26.72C473.918 27.84 472.771 28.6933 471.411 29.28C470.078 29.84 468.651 30.12 467.131 30.12Z" fill="#fff"/>
<path d="M490.404 30.12C488.484 30.12 486.751 29.68 485.204 28.8C483.684 27.8933 482.471 26.6533 481.564 25.08C480.684 23.48 480.244 21.6533 480.244 19.6C480.244 17.52 480.684 15.7067 481.564 14.16C482.471 12.5867 483.684 11.3467 485.204 10.44C486.751 9.53333 488.484 9.07999 490.404 9.07999C492.271 9.07999 493.951 9.51999 495.444 10.4C496.937 11.28 498.111 12.5067 498.964 14.08C499.844 15.6533 500.284 17.4933 500.284 19.6C500.284 21.68 499.844 23.52 498.964 25.12C498.111 26.72 496.937 27.96 495.444 28.84C493.951 29.6933 492.271 30.12 490.404 30.12ZM490.444 28.92C492.151 28.92 493.671 28.5333 495.004 27.76C496.337 26.96 497.391 25.8533 498.164 24.44C498.937 23.0267 499.324 21.4133 499.324 19.6C499.324 17.76 498.937 16.1467 498.164 14.76C497.391 13.3467 496.337 12.2533 495.004 11.48C493.671 10.7067 492.151 10.32 490.444 10.32C488.764 10.32 487.257 10.7067 485.924 11.48C484.591 12.2533 483.524 13.3467 482.724 14.76C481.951 16.1467 481.564 17.76 481.564 19.6C481.564 21.4133 481.951 23.0267 482.724 24.44C483.524 25.8533 484.591 26.96 485.924 27.76C487.257 28.5333 488.764 28.92 490.444 28.92ZM499.364 30V22.72L499.724 19.56L499.324 16.4V0.319992H500.644V30H499.364Z" fill="#fff"/>
<path d="M529.875 30.12C528.009 30.12 526.329 29.6933 524.835 28.84C523.342 27.96 522.155 26.72 521.275 25.12C520.422 23.52 519.995 21.68 519.995 19.6C519.995 17.4933 520.422 15.6533 521.275 14.08C522.155 12.5067 523.342 11.28 524.835 10.4C526.329 9.51999 528.009 9.07999 529.875 9.07999C531.795 9.07999 533.515 9.53333 535.035 10.44C536.582 11.3467 537.795 12.5867 538.675 14.16C539.582 15.7067 540.035 17.52 540.035 19.6C540.035 21.6533 539.582 23.48 538.675 25.08C537.795 26.6533 536.582 27.8933 535.035 28.8C533.515 29.68 531.795 30.12 529.875 30.12ZM519.635 30V0.319992H520.955V16.4L520.555 19.56L520.915 22.72V30H519.635ZM529.835 28.92C531.515 28.92 533.022 28.5333 534.355 27.76C535.715 26.96 536.782 25.8533 537.555 24.44C538.329 23.0267 538.715 21.4133 538.715 19.6C538.715 17.76 538.329 16.1467 537.555 14.76C536.782 13.3467 535.715 12.2533 534.355 11.48C533.022 10.7067 531.515 10.32 529.835 10.32C528.129 10.32 526.609 10.7067 525.275 11.48C523.942 12.2533 522.889 13.3467 522.115 14.76C521.342 16.1467 520.955 17.76 520.955 19.6C520.955 21.4133 521.342 23.0267 522.115 24.44C522.889 25.8533 523.942 26.96 525.275 27.76C526.609 28.5333 528.129 28.92 529.835 28.92Z" fill="#fff"/>
<path d="M545.003 37.88C544.07 37.88 543.203 37.72 542.403 37.4C541.603 37.1067 540.923 36.6533 540.363 36.04L541.123 35C541.683 35.5867 542.27 36.0133 542.883 36.28C543.497 36.5733 544.203 36.72 545.003 36.72C546.017 36.72 546.91 36.44 547.683 35.88C548.457 35.32 549.177 34.2933 549.843 32.8L551.363 29.52L551.563 29.2L560.603 9.23999H562.003L551.123 33.12C550.59 34.2933 550.003 35.2267 549.363 35.92C548.75 36.64 548.083 37.1467 547.363 37.44C546.643 37.7333 545.857 37.88 545.003 37.88ZM551.403 30.48L541.723 9.23999H543.163L552.163 29.12L551.403 30.48Z" fill="#fff"/>
<path d="M577.425 30V1.99999H578.785V30H577.425Z" fill="#fff"/>
<path d="M593.586 30L584.106 9.23999H585.546L594.546 29.2H593.946L602.986 9.23999H604.386L594.906 30H593.586Z" fill="#fff"/>
<path d="M621.624 30V25.16L621.584 24.44V16.56C621.584 14.5067 621.038 12.9467 619.944 11.88C618.851 10.8133 617.264 10.28 615.184 10.28C613.664 10.28 612.278 10.5467 611.024 11.08C609.771 11.5867 608.691 12.2533 607.784 13.08L607.064 12.12C608.051 11.1867 609.264 10.4533 610.704 9.91999C612.144 9.35999 613.651 9.07999 615.224 9.07999C617.704 9.07999 619.598 9.71999 620.904 11C622.238 12.2533 622.904 14.1067 622.904 16.56V30H621.624ZM613.904 30.12C612.331 30.12 610.984 29.88 609.864 29.4C608.771 28.92 607.931 28.24 607.344 27.36C606.758 26.4533 606.464 25.4267 606.464 24.28C606.464 23.2667 606.704 22.3333 607.184 21.48C607.664 20.6 608.451 19.9067 609.544 19.4C610.664 18.8667 612.158 18.6 614.024 18.6H622.064V19.68H614.024C611.758 19.68 610.144 20.1067 609.184 20.96C608.251 21.8133 607.784 22.8933 607.784 24.2C607.784 25.6667 608.331 26.84 609.424 27.72C610.518 28.5733 612.038 29 613.984 29C615.904 29 617.491 28.5733 618.744 27.72C619.998 26.84 620.944 25.6 621.584 24L622.024 24.88C621.491 26.4533 620.531 27.72 619.144 28.68C617.758 29.64 616.011 30.12 613.904 30.12Z" fill="#fff"/>
<path d="M641.349 9.07999C643.056 9.07999 644.523 9.41333 645.749 10.08C647.003 10.7467 647.976 11.7333 648.669 13.04C649.363 14.32 649.709 15.9067 649.709 17.8V30H648.389V17.88C648.389 15.4 647.763 13.52 646.509 12.24C645.256 10.96 643.496 10.32 641.229 10.32C639.496 10.32 638.003 10.6667 636.749 11.36C635.496 12.0533 634.536 13.04 633.869 14.32C633.203 15.6 632.869 17.0933 632.869 18.8V30H631.549V9.23999H632.829V15.08L632.669 14.72C633.309 12.9867 634.363 11.6133 635.829 10.6C637.323 9.58666 639.163 9.07999 641.349 9.07999Z" fill="#fff"/>
<path d="M69.03 115.76C65.51 119.06 61.33 121.517 56.49 123.13C51.65 124.743 46.59 125.55 41.31 125.55C35.5167 125.55 30.1267 124.56 25.14 122.58C20.2267 120.6 15.9733 117.887 12.38 114.44C8.78667 110.993 5.96334 106.887 3.91 102.12C1.93 97.28 0.940002 92.0733 0.940002 86.5C0.940002 80.8533 1.93 75.6467 3.91 70.88C5.96334 66.1133 8.78667 62.0067 12.38 58.56C16.0467 55.1133 20.3367 52.4 25.25 50.42C30.2367 48.44 35.6267 47.45 41.42 47.45C47.0667 47.45 52.2733 48.33 57.04 50.09C61.8067 51.85 65.9133 54.5267 69.36 58.12L65.4 62.3C62.1 59 58.47 56.6533 54.51 55.26C50.55 53.8667 46.26 53.17 41.64 53.17C36.7267 53.17 32.1433 54.0133 27.89 55.7C23.71 57.3867 20.08 59.7333 17 62.74C13.9933 65.6733 11.61 69.1933 9.85 73.3C8.16334 77.3333 7.32 81.7333 7.32 86.5C7.32 91.2667 8.16334 95.7033 9.85 99.81C11.61 103.843 13.9933 107.363 17 110.37C20.08 113.303 23.71 115.613 27.89 117.3C32.07 118.987 36.6167 119.83 41.53 119.83C45.49 119.83 49.2667 119.317 52.86 118.29C56.5267 117.263 59.9 115.54 62.98 113.12V86.72H69.03V115.76Z" fill="#fff"/>
<path d="M99.3281 125H92.6181L128.038 48H134.308L169.728 125H162.908L131.118 54.82L99.3281 125Z" fill="#fff"/>
<path d="M219.432 125H213.162L178.842 48H185.772L216.352 116.97L247.152 48H253.642L219.432 125Z" fill="#fff"/>
<path d="M338.208 125H331.058L312.908 99.59C311.808 99.7367 310.671 99.8467 309.498 99.92C308.324 99.9933 307.114 100.03 305.868 100.03H284.198V125H277.928V94.53H305.868C313.934 94.53 320.058 92.7333 324.238 89.14C328.491 85.5467 330.618 80.5233 330.618 74.07C330.618 67.5433 328.491 62.52 324.238 59C320.058 55.4067 313.934 53.61 305.868 53.61H277.928V48H305.868C310.708 48 315.034 48.5867 318.848 49.76C322.734 50.9333 325.998 52.6567 328.638 54.93C331.351 57.13 333.404 59.8433 334.798 63.07C336.264 66.2967 336.998 69.9633 336.998 74.07C336.998 80.23 335.421 85.3633 332.268 89.47C329.188 93.5767 324.788 96.4733 319.068 98.16L338.208 125Z" fill="#fff"/>
<path d="M369.305 125V48H375.575V125H369.305Z" fill="#fff"/>
<path d="M414.061 125V48H420.331V119.39H464.331V125H414.061Z" fill="#fff"/>
<path d="M522.001 125.55C516.281 125.55 510.964 124.56 506.051 122.58C501.137 120.6 496.884 117.887 493.291 114.44C489.697 110.993 486.874 106.887 484.821 102.12C482.841 97.28 481.851 92.0733 481.851 86.5C481.851 80.8533 482.841 75.6467 484.821 70.88C486.874 66.1133 489.697 62.0067 493.291 58.56C496.884 55.1133 501.137 52.4 506.051 50.42C510.964 48.44 516.281 47.45 522.001 47.45C527.721 47.45 533.037 48.44 537.951 50.42C542.864 52.4 547.117 55.1133 550.711 58.56C554.304 62.0067 557.091 66.1133 559.071 70.88C561.124 75.6467 562.151 80.8533 562.151 86.5C562.151 92.0733 561.124 97.28 559.071 102.12C557.091 106.887 554.304 110.993 550.711 114.44C547.117 117.887 542.864 120.6 537.951 122.58C533.037 124.56 527.721 125.55 522.001 125.55ZM522.001 119.83C526.841 119.83 531.314 118.987 535.421 117.3C539.527 115.613 543.084 113.303 546.091 110.37C549.171 107.363 551.554 103.843 553.241 99.81C554.927 95.7033 555.771 91.2667 555.771 86.5C555.771 81.7333 554.927 77.3333 553.241 73.3C551.554 69.1933 549.171 65.6733 546.091 62.74C543.084 59.7333 539.527 57.3867 535.421 55.7C531.314 54.0133 526.841 53.17 522.001 53.17C517.161 53.17 512.687 54.0133 508.581 55.7C504.474 57.3867 500.881 59.7333 497.801 62.74C494.794 65.6733 492.447 69.1933 490.761 73.3C489.074 77.3333 488.231 81.7333 488.231 86.5C488.231 91.2667 489.074 95.7033 490.761 99.81C492.447 103.843 494.794 107.363 497.801 110.37C500.881 113.303 504.474 115.613 508.581 117.3C512.687 118.987 517.161 119.83 522.001 119.83Z" fill="#fff"/>
<path d="M618.955 125H612.685L578.365 48H585.295L615.875 116.97L646.675 48H653.165L618.955 125Z" fill="#fff"/>
</svg>
