<svg xmlns="http://www.w3.org/2000/svg" width="256" height="41" viewBox="0 0 256 41">
    <g fill="#FFF" fill-rule="evenodd">
        <path d="M106 1.81v29.193L124 41l18-9.997V1.811L123.961 0 106 1.81zm29.815 5.435v-.003l-11.854 6.548-11.855-6.548v20.232l6.036 3.317v-.006l5.847 3.207v-6.736l-5.847-3.207v-6.723l5.819 3.2 5.822-3.202v7.677l6.036-3.339V7.242l-.004.003zm-26.582 21.833V4.76l14.728-1.485 14.806 1.486v24.317L124 37.28l-14.767-8.2zM7.656 12.576L0 8v14.178h4.201v-7.136l3.455 2.065 3.455-2.065v7.136h4.201V8l-7.656 4.576zm151.4 0L151.4 8v14.178h4.202v-7.136l3.454 2.065 3.455-2.065v7.136h4.202V8l-7.657 4.576zm87.708-3.96l-6.076 13.562h3.844l.883-2.031h5.194l.891 2.031h4.5l-6.054-13.561h-3.182zm1.235 5.581l1.26 2.873h-2.507l1.247-2.873zm-22.408-5.58v13.561h8.126c2.42-.022 4.166-1.518 4.166-3.539 0-2.02-2.088-3.293-3.611-3.396 1.471-.304 2.959-1.376 2.959-3.279 0-1.904-1.588-3.334-4.08-3.347h-7.56zm4.236 3.098h1.933c.813 0 1.554.374 1.554 1.23 0 .858-.764 1.232-1.554 1.232h-1.933v-2.462zm.006 4.903h2.64c.835 0 1.494.472 1.494 1.232s-.662 1.23-1.494 1.23h-2.64v-2.462zm-12.546-8.001l-3.583 4.924h-1.147V8.617h-4.22v13.561h4.22v-5.535h1.127l4.02 5.535h4.22l-5.141-7.078h.006l4.718-6.483h-4.22zM190.005 15.5c0 4.142 3.518 7.5 7.859 7.5 2.613 0 4.93-1.218 6.358-3.092l-3.255-2.266c-.692.918-1.824 1.52-3.103 1.52-2.106 0-3.814-1.63-3.814-3.617 0-2.032 1.708-3.661 3.814-3.661 1.287 0 2.426.61 3.116 1.547l3.283-2.284c-1.425-1.905-3.76-3.147-6.4-3.147-4.34 0-7.858 3.358-7.858 7.5zm-19.194 0c0 4.142 3.524 7.5 7.872 7.5 4.347 0 7.871-3.358 7.871-7.5 0-4.142-3.524-7.5-7.871-7.5-4.348 0-7.872 3.358-7.872 7.5zm4.052.045c0-2.032 1.71-3.661 3.82-3.661 2.109 0 3.819 1.63 3.819 3.66 0 1.988-1.71 3.617-3.82 3.617-2.109 0-3.819-1.63-3.819-3.616zM69.23 15.5c0 4.142 3.428 7.5 7.656 7.5 4.229 0 7.657-3.358 7.657-7.5 0-4.142-3.428-7.5-7.657-7.5-4.228 0-7.656 3.358-7.656 7.5zm3.93.043c0-2.033 1.664-3.664 3.715-3.664 2.052 0 3.715 1.63 3.715 3.664 0 1.99-1.663 3.62-3.715 3.62-2.051 0-3.715-1.63-3.715-3.62zM35.37 8.617v5.85h3.248v-2.748h2.32v10.46h4.176v-10.46h2.32v2.748h3.248v-5.85H35.37zm53.27 0v13.561h4.239V18.81h2.615c3.004 0 5.44-2.282 5.44-5.075 0-2.837-2.436-5.118-5.44-5.118H88.64zm4.239 3.102h1.854c1.177 0 2.128.893 2.12 2.016.008 1.08-.943 1.972-2.12 1.972h-1.854V11.72zM59.23 8.617h-4.234v13.561h10.352v-3.102H59.23v-2.127h3.295v-3.103H59.23V11.72h6.118V8.617H59.23zm-34.291 0h-4.235v13.561h10.352v-3.146H24.94v-2.083h3.388v-3.147H24.94v-2.039h6.117V8.617H24.94z"/>
    </g>
</svg>
