<svg class="MuiSvgIcon-root MuiSvgIcon-fontSizeMedium css-za0psf" fill="#fff" xmlns="http://www.w3.org/2000/svg" focusable="false" aria-hidden="true" viewBox="0 0 180 53">
    <path d="M23.1905 41.4934C24.0247 42.4265 24.8588 43.3596 25.8043 44.2378C30.3089 48.4642 36.0926 51.5379 42.5993 52.8003V49.013C37.2048 47.8054 32.4222 45.1709 28.6405 41.6031C27.417 40.5054 26.3604 39.243 25.3593 37.9805C24.8032 39.0784 24.1359 40.1213 23.4685 41.164L23.5242 41.219L23.4685 41.164C23.3573 41.2739 23.3017 41.3836 23.1905 41.4934ZM17.3511 37.816C16.3501 39.1881 15.1823 40.4505 13.9587 41.6031C10.1771 45.1709 5.39442 47.8054 0 49.013V52.8003C6.45107 51.483 12.2348 48.4642 16.795 44.2378C17.7404 43.3047 18.6859 42.3716 19.5201 41.3836L19.3532 41.164L19.2976 41.219L19.3532 41.164C18.6302 40.0663 17.9629 38.9686 17.3511 37.816ZM0 46.598C4.56024 45.3904 8.61996 43.0851 11.9011 40.0114C14.3481 37.7061 16.3501 34.9617 17.7404 31.9429C18.6302 34.4129 19.8537 36.7731 21.3552 38.9686C22.8011 37.1024 23.9134 34.5776 24.9701 31.9429C26.3604 34.9617 28.3625 37.7061 30.8094 40.0114C34.0906 43.0851 38.1503 45.3356 42.6549 46.598V42.701C39.2069 41.6031 36.0926 39.7919 33.5901 37.4317C29.3079 33.4249 26.6385 27.9911 26.6385 21.9535V5.26758H22.69V21.9535C22.69 24.8624 22.1894 28.3203 21.2997 30.955C20.4099 28.2655 19.9093 24.8624 19.9093 21.9535V5.26758H15.9608V21.9535C15.9608 27.9911 13.347 33.4798 9.12047 37.4317C6.56229 39.7919 3.44799 41.6031 0 42.701V46.598ZM29.0297 20.9654V17.8368H32.9783V20.9654V21.185V21.5692C32.9783 25.9602 34.8691 29.967 37.9834 32.8211C39.3182 34.0836 40.8753 35.1264 42.5993 35.8949V39.9566C39.763 38.9686 37.2605 37.4317 35.1472 35.4558C31.3655 31.8881 28.9742 26.9482 28.9742 21.5692V21.185V20.9654H29.0297ZM9.62099 20.9654V17.8368H13.5695V20.9654V21.185V21.5692C13.5695 27.0031 11.2338 31.8881 7.39647 35.4558C5.33881 37.4317 2.78063 38.9686 0 39.9566V35.8949C1.72399 35.1264 3.28114 34.0836 4.61585 32.8211C7.67454 29.9122 9.62099 25.9602 9.62099 21.5692V21.185V20.9654Z"></path><path d="M98.2665 27.2792H94.8742V5.21433H98.2665V13.8317H98.8227C100.658 13.8317 101.27 11.8557 101.27 10.3738V5.21433H104.662V10.264C104.662 12.5693 103.772 14.3257 102.104 15.4783C103.939 16.7407 104.662 18.3325 104.662 20.6927V27.3341H101.27V20.528C101.27 19.1009 100.602 17.3445 98.8227 17.3993H98.211V27.2792H98.2665ZM156.271 27.2792V5.21433H159.329V18.1129L162.832 5.21433H166.614V27.2792H163.556V11.9106L159.385 27.2792H156.271ZM169.006 27.2792V5.21433H172.064V18.1129L175.569 5.21433H179.35V27.2792H176.291V11.9106L172.12 27.2792H169.006ZM177.959 0V2.57972H170.451V0H177.959ZM147.539 27.2792H144.147V5.21433H147.539V13.8317H148.095C149.931 13.8317 150.542 11.8557 150.542 10.3738V5.21433H153.935V10.264C153.935 12.5693 153.045 14.3257 151.376 15.4783C153.211 16.7407 153.935 18.3325 153.935 20.6927V27.3341H150.542V20.528C150.542 19.1009 149.876 17.3445 148.095 17.3993H147.484V27.2792H147.539ZM85.6982 27.2242H82.3057V5.21433H85.6982H88.9236H92.4272V14.0513H88.9236V8.34292H85.6982V24.0957H88.9236V18.3874H92.4272V27.2242H88.9236H85.6982ZM134.971 27.2242H131.578V5.21433H134.971H138.197H141.7V14.0513H138.197V8.34292H134.971V24.0957H138.197V18.3874H141.7V27.2242H138.197H134.971ZM76.4108 8.34292H73.2409C73.2409 13.667 73.2409 18.7716 73.2409 24.0957H76.4108C76.4108 18.7716 76.4108 13.667 76.4108 8.34292ZM73.1296 27.2242H69.7373C69.7373 19.8693 69.7373 12.5144 69.7373 5.15943H73.1296H76.3552H79.8588C79.8588 12.5144 79.8588 19.8693 79.8588 27.2242H76.3552H73.1296ZM113.782 8.34292H110.613C110.613 13.667 110.613 18.7716 110.613 24.0957H113.782C113.782 18.7716 113.782 13.667 113.782 8.34292ZM110.557 27.2242H107.165C107.165 19.8693 107.165 12.5144 107.165 5.15943H110.557H113.782H117.286C117.286 12.5144 117.286 19.8693 117.286 27.2242H113.782H110.557ZM123.07 8.34292V14.2708C124.349 14.3257 125.906 14.2708 125.906 12.0204V9.98954V8.34292H123.07ZM123.07 17.3993V24.0957H125.906C125.906 22.6686 125.906 21.2415 125.906 19.8145C125.906 17.564 124.349 17.3445 123.07 17.3993ZM129.299 9.05646V9.98954V11.8008C129.299 13.5572 128.575 14.8196 127.407 15.643C128.686 16.631 129.299 18.1678 129.299 20.034C129.299 22.449 129.299 24.8641 129.299 27.2242C127.241 27.2242 125.128 27.2242 123.07 27.2242H119.678V5.21433H123.07C125.128 5.21433 127.241 5.21433 129.299 5.21433V9.05646ZM60.1163 19.979C61.0061 15.2587 62.174 9.98954 62.7301 5.26922H67.346V27.3341H64.3429V18.552L64.6766 10.6482C64.2316 13.1731 62.5632 22.5039 60.45 27.0047H60.1163H59.7826C57.6693 22.5039 55.9453 13.1731 55.5561 10.6482L55.8898 18.552V27.2792H52.8867V5.21433H57.5025C58.0586 9.98954 59.2265 15.2587 60.1163 19.979Z"></path><path d="M93.8723 33.9218V43.7467C95.1514 43.8015 96.7085 43.582 96.7085 41.3316V39.3007V33.8669H93.8723V33.9218ZM100.101 38.4226V39.3556V41.167C100.101 44.57 98.3212 46.9302 94.9845 46.9302H93.8723V52.8581H90.4799V30.7383C93.7055 30.7383 96.9309 30.7383 100.101 30.7383V38.4226ZM101.046 30.7383H111.613V33.8669H108.053V52.7482H104.661V33.9218H101.102V30.7383H101.046ZM84.6962 33.9218H81.5263C81.5263 39.2459 81.5263 44.3505 81.5263 49.6746H84.6962C84.6962 44.3505 84.6962 39.191 84.6962 33.9218ZM81.4151 52.8031H78.0226C78.0226 45.4482 78.0226 38.0933 78.0226 30.7383H81.4151H84.6405H88.1442C88.1442 38.0933 88.1442 45.4482 88.1442 52.8031H84.6405H81.4151ZM56.3337 52.8031H52.9414V30.7383H56.3337H59.5593H63.0629V39.5753H59.5593V33.9218H56.3337V49.6746H59.5593V43.9662H63.0629V52.8031H59.5593H56.3337ZM68.9022 52.8031H65.5098V30.7383H75.6313V52.8031H72.1277V33.9218H68.9022V52.8031Z"></path>
</svg>